<svg width="124" height="124" viewBox="0 0 124 124" fill="none" xmlns="http://www.w3.org/2000/svg">
    <path fill-rule="evenodd" clip-rule="evenodd" d="M24 28L16 28C7.16344 28 0 35.1634 0 44V108C0 116.837 7.16345 124 16 124H80C88.8366 124 96 116.837 96 108V44C96 35.1634 88.8366 28 80 28H48V44H80V108H16L16 44H24V28Z" fill="black"/>
    <path fill-rule="evenodd" clip-rule="evenodd" d="M100 96H108C116.837 96 124 88.8366 124 80L124 16C124 7.16344 116.837 0 108 0L44 0C35.1634 0 28 7.16344 28 16L28 80C28 88.8366 35.1634 96 44 96L76 96V80L44 80L44 16L108 16L108 80H100V96Z" fill="black"/>
</svg>
